<svg width="203" height="203" viewBox="0 0 203 203" fill="none" xmlns="http://www.w3.org/2000/svg">
<g filter="url(#filter0_f_49_5)">
<circle cx="101.222" cy="101.222" r="75.5" transform="rotate(63.5566 101.222 101.222)" fill="url(#paint0_linear_49_5)"/>
<path d="M71.2142 97.4007C69.1601 93.2707 64.1181 91.6102 59.987 93.6648C55.8558 95.7194 54.1377 100.742 56.1918 104.872C58.2458 109.002 63.3065 110.7 67.4376 108.646C71.5688 106.591 73.2682 101.531 71.2142 97.4007ZM116.344 46.8556C114.279 47.883 113.429 50.413 114.456 52.478L116.323 56.2326L94.5406 83.926L82.8561 83.4149C76.4604 83.1769 72.1314 89.8259 74.9698 95.5328L95.5104 136.833C96.5374 138.898 99.0677 139.747 101.133 138.72C103.199 137.692 104.049 135.162 103.022 133.097L82.481 91.7972L92.0462 92.1915L105.958 120.163C107.358 122.979 110.131 124.691 113.094 124.81L144.153 126.129C144.879 126.162 145.602 126.005 146.25 125.673C146.897 125.342 147.447 124.847 147.844 124.237C148.241 123.628 148.473 122.926 148.515 122.2C148.558 121.474 148.41 120.749 148.087 120.098L120.45 64.5302L124.569 59.3436C125.06 58.723 125.364 57.9755 125.446 57.1885C125.527 56.4015 125.383 55.6076 125.03 54.8998L121.967 48.7424C120.94 46.6773 118.41 45.8283 116.344 46.8556ZM89.8875 134.946C87.8334 130.816 82.7914 129.156 78.6603 131.21C74.5291 133.265 72.811 138.288 74.8651 142.418C76.9191 146.548 81.9798 148.246 86.1109 146.191C90.2421 144.137 91.9415 139.076 89.8875 134.946Z" fill="#E4E4E9"/>
</g>
<defs>
<filter id="filter0_f_49_5" x="-4.00003" y="-4" width="210.444" height="210.444" filterUnits="userSpaceOnUse" color-interpolation-filters="sRGB">
<feFlood flood-opacity="0" result="BackgroundImageFix"/>
<feBlend mode="normal" in="SourceGraphic" in2="BackgroundImageFix" result="shape"/>
<feGaussianBlur stdDeviation="2" result="effect1_foregroundBlur_49_5"/>
</filter>
<linearGradient id="paint0_linear_49_5" x1="25.7219" y1="25.722" x2="176.722" y2="176.722" gradientUnits="userSpaceOnUse">
<stop stop-color="#5300DC"/>
<stop offset="1" stop-color="#FF007D"/>
</linearGradient>
</defs>
</svg>
