<svg width="39" height="31" viewBox="0 0 39 31" fill="none" xmlns="http://www.w3.org/2000/svg">
<path d="M32.7065 2.52117C30.1744 1.32791 27.4957 0.480051 24.741 0C24.3979 0.624787 23.997 1.46513 23.7206 2.13366C20.7506 1.68387 17.8079 1.68387 14.8925 2.13366C14.6162 1.46528 14.2063 0.624787 13.86 0C11.1027 0.480272 8.42165 1.33029 5.88836 2.5274C0.847304 10.2 -0.519289 17.6818 0.163932 25.0577C3.50749 27.5725 6.74774 29.1002 9.93339 30.0999C10.7251 29.0033 11.425 27.8424 12.0257 26.629C10.8819 26.1904 9.77929 25.6499 8.73089 25.014C9.00679 24.808 9.27619 24.5933 9.53869 24.3703C15.8916 27.3632 22.7944 27.3632 29.0716 24.3703C29.3352 24.5919 29.6045 24.8065 29.8792 25.014C28.8291 25.6516 27.7244 26.1932 26.5783 26.6322C27.1825 27.8505 27.8811 29.0126 28.6707 30.1029C31.8594 29.1034 35.1026 27.5757 38.4462 25.0577C39.2479 16.5073 37.0767 9.09397 32.7065 2.52102V2.52117ZM12.8913 20.5217C10.9842 20.5217 9.42014 18.7284 9.42014 16.5448C9.42014 14.3611 10.9508 12.5649 12.8913 12.5649C14.8319 12.5649 16.3958 14.3579 16.3625 16.5448C16.3655 18.7284 14.8319 20.5217 12.8913 20.5217ZM25.7188 20.5217C23.8117 20.5217 22.2478 18.7284 22.2478 16.5448C22.2478 14.3611 23.7783 12.5649 25.7188 12.5649C27.6594 12.5649 29.2233 14.3579 29.19 16.5448C29.19 18.7284 27.6594 20.5217 25.7188 20.5217Z" fill="#5865F2"/>
</svg>
