<svg width="426" height="343" viewBox="0 0 426 343" fill="none" xmlns="http://www.w3.org/2000/svg">
<g clip-path="url(#clip0_40_142)">
<path d="M156.504 316.539C147.13 323.823 133.98 328.957 115.66 329.177C115.473 329.177 115.309 329.177 115.122 329.177C114.935 329.177 114.903 329.177 114.804 329.177C114.705 329.177 114.617 329.177 114.518 329.177C114.42 329.177 114.134 329.177 113.948 329.177C95.6277 328.957 82.4778 323.823 73.1038 316.539C64.8545 310.033 58.6513 301.293 55.234 291.361V333.62H172.321V296.429C168.744 304.307 163.318 311.205 156.504 316.539ZM154.221 159.295H75.3869L0.0548706 342.989H63.0822L66.6606 333.62L73.1587 316.539C64.9094 310.033 58.7062 301.293 55.2889 291.361C53.2059 285.585 52.0501 279.516 51.8642 273.38C51.5459 255.322 64.3445 219.535 73.2246 198.856C74.264 196.377 75.5706 194.019 77.1212 191.823C73.8283 178.362 76.8029 167.315 78.4494 165.888C86.0232 159.394 99.6781 171.111 104.969 176.179C108.245 175.758 111.545 175.545 114.848 175.543C118.152 175.541 121.453 175.765 124.727 176.212C129.984 171.143 143.672 159.361 151.312 165.888C152.958 167.315 155.9 178.362 152.607 191.823C154.153 194.022 155.459 196.379 156.504 198.856C165.384 219.535 178.215 255.322 177.864 273.38C177.609 281.351 175.742 289.188 172.376 296.418C168.799 304.296 163.373 311.194 156.559 316.528L163.057 333.609L166.635 342.978H229.662L154.221 159.295Z" fill="#FF007D"/>
<path d="M283.469 237.922H341.217C347.013 237.922 351.517 236.46 354.729 233.534C357.942 230.609 359.548 226.363 359.548 220.797C359.548 215.246 357.942 211 354.729 208.06C351.517 205.12 347.013 203.657 341.217 203.672H275.215L301.8 175.203V343.055H242.637V159.306H350.339C364.081 159.306 376.112 161.866 386.43 166.986C396.334 171.732 404.702 179.169 410.578 188.444C416.308 197.594 419.173 208.371 419.173 220.775C419.173 232.865 416.308 243.521 410.578 252.744C404.748 262.05 396.366 269.487 386.43 274.17C376.119 279.238 364.089 281.769 350.339 281.761H283.382L283.469 237.922ZM303.633 257.033H368.944L426.022 343H358.395L303.633 257.033Z" fill="#FF007D"/>
<path d="M75.2114 1.53589C82.2406 1.38311 89.221 2.73731 95.6826 5.5073C101.182 7.87333 105.905 11.7354 109.315 16.6536C112.639 21.6599 114.348 27.5639 114.211 33.5704C114.343 39.5595 112.643 45.4461 109.337 50.4434C105.939 55.3827 101.213 59.2617 95.7046 61.6336C89.2454 64.4126 82.2638 65.7707 75.2333 65.616H41.206V1.53589H75.2114ZM63.0713 55.7862L53.1924 45.9125H76.8908C79.6549 45.9849 82.4034 45.4766 84.9585 44.4205C87.0656 43.5392 88.8644 42.0543 90.1285 40.1529C91.3071 38.1373 91.9283 35.8447 91.9283 33.5101C91.9283 31.1755 91.3071 28.8829 90.1285 26.8673C88.8562 24.9812 87.0588 23.5089 84.9585 22.6326C82.4034 21.5765 79.6549 21.0682 76.8908 21.1406H53.1485L63.0274 11.2669L63.0713 55.7862Z" fill="#FF007D"/>
<path d="M158.633 67.1519C151.581 67.3064 144.585 65.8741 138.162 62.961C132.6 60.4181 127.873 56.3517 124.529 51.2333C121.222 45.9459 119.543 39.8039 119.699 33.5704C119.564 27.3405 121.258 21.2074 124.573 15.9295C127.92 10.8086 132.646 6.7359 138.206 4.17985C144.68 1.42203 151.645 0.000427246 158.683 0.000427246C165.72 0.000427246 172.685 1.42203 179.159 4.17985C184.718 6.73306 189.441 10.8066 192.781 15.9295C196.088 21.2098 197.775 27.3427 197.633 33.5704C197.77 39.8106 196.067 45.9531 192.737 51.2333C189.403 56.3618 184.679 60.4369 179.115 62.983C172.687 65.8887 165.687 67.3134 158.633 67.1519ZM158.633 47.5033C161.71 47.5791 164.768 47.0111 167.612 45.8357C169.966 44.8452 171.975 43.1811 173.386 41.0525C174.702 38.7804 175.395 36.2014 175.395 33.5759C175.395 30.9504 174.702 28.3714 173.386 26.0994C171.982 23.965 169.971 22.2992 167.612 21.3161C161.837 19.0923 155.441 19.0923 149.665 21.3161C147.305 22.2963 145.293 23.9627 143.892 26.0994C142.575 28.3714 141.882 30.9504 141.882 33.5759C141.882 36.2014 142.575 38.7804 143.892 41.0525C145.3 43.1833 147.309 44.8481 149.665 45.8357C152.506 47.0102 155.56 47.5782 158.633 47.5033Z" fill="#FF007D"/>
<path d="M227.533 1.53589V55.8739L217.654 46.0003H265.347V65.6598H205.481V1.53589H227.533Z" fill="#FF007D"/>
<path d="M272.273 1.53589H294.325V65.616H272.273V1.53589Z" fill="#FF007D"/>
<path d="M356.694 1.53589L384.816 65.616H361.304L339.164 11.2779H344.806L322.667 65.616H299.166L327.288 1.53589H356.694ZM319.758 54.8427V37.2895H363.445V54.8427H319.758Z" fill="#FF007D"/>
<path d="M111.708 82.9168C116.83 82.7809 121.919 83.7578 126.626 85.7802C130.513 87.4822 133.802 90.3101 136.065 93.8985C138.195 97.6657 139.314 101.919 139.314 106.246C139.314 110.573 138.195 114.826 136.065 118.594C133.804 122.182 130.515 125.007 126.626 126.701C121.919 128.723 116.83 129.7 111.708 129.564H84.5743V112.395H110.216C112.043 112.51 113.847 111.93 115.265 110.772C116.414 109.536 117.052 107.911 117.052 106.224C117.052 104.537 116.414 102.913 115.265 101.677C113.834 100.546 112.036 99.9835 110.216 100.097H86.4843L96.3632 90.2233V147.041H74.3003V82.9168H111.708Z" fill="#FF007D"/>
<path d="M169.489 114.962L165.559 138.802L157.184 129.564H205.821V146.997H143.76L148.458 114.962L143.76 82.9168H205.393V100.349H157.184L165.559 91.1229L169.489 114.962ZM202.66 107.36V122.543H154.363V107.36H202.66Z" fill="#FF007D"/>
<path d="M211.123 82.9168H279.331V102.576H211.123V82.9168ZM234.174 92.4065H256.237V146.997H234.174V92.4065Z" fill="#FF007D"/>
<path d="M282.921 125.889H305.324C305.552 127.175 306.252 128.33 307.289 129.126C308.605 130.121 310.122 130.821 311.734 131.177C313.946 131.692 316.213 131.935 318.485 131.901C321.187 132.003 323.888 131.654 326.476 130.87C328.385 130.19 329.34 129.093 329.34 127.579C329.322 127.039 329.162 126.514 328.877 126.056C328.592 125.598 328.192 125.223 327.716 124.968C326.618 124.255 324.423 123.783 321.042 123.552L310.45 122.872C300.812 122.251 293.861 120.203 289.594 116.729C287.524 115.096 285.865 113.001 284.752 110.612C283.639 108.223 283.102 105.606 283.184 102.971C283.032 98.6178 284.489 94.3606 287.278 91.0132C290.372 87.5985 294.355 85.1106 298.782 83.8274C304.393 82.1372 310.233 81.3303 316.092 81.4357C321.916 81.337 327.714 82.2502 333.226 84.1346C337.755 85.6288 341.84 88.2265 345.114 91.6934C347.99 94.8044 349.694 98.8188 349.932 103.048H327.54C327.342 101.986 326.745 101.041 325.872 100.404C324.687 99.5525 323.331 98.9686 321.898 98.6927C319.849 98.2639 317.757 98.0652 315.664 98.1003C313.163 98.0094 310.664 98.3281 308.265 99.0438C306.476 99.6581 305.576 100.689 305.576 102.116C305.6 102.63 305.758 103.128 306.035 103.562C306.313 103.995 306.7 104.348 307.157 104.584C308.211 105.272 310.249 105.729 313.271 105.955L325.235 106.723C330.414 106.918 335.538 107.856 340.449 109.51C343.831 110.601 346.798 112.699 348.956 115.522C350.826 118.325 351.77 121.644 351.656 125.012C351.733 129.5 350.251 133.877 347.463 137.397C344.344 141.125 340.286 143.95 335.707 145.582C330.057 147.648 324.072 148.645 318.057 148.522C311.826 148.651 305.62 147.701 299.715 145.713C295.004 144.181 290.777 141.442 287.454 137.77C284.577 134.475 282.97 130.262 282.921 125.889Z" fill="#FF007D"/>
</g>
<defs>
<clipPath id="clip0_40_142">
<rect width="426" height="343" fill="white"/>
</clipPath>
</defs>
</svg>
