<svg width="82" height="47" viewBox="0 0 82 47" fill="none" xmlns="http://www.w3.org/2000/svg">
<path d="M29.1517 35.7015C29.9499 35.6459 30.7471 35.7936 31.2737 36.1034C32.0434 36.581 32.3271 37.2487 32.3721 37.9027C32.3737 37.9265 32.3753 37.9498 32.3763 37.9736C32.3811 38.2844 32.3827 38.6514 31.9333 38.8992C31.8152 38.9633 31.6744 38.9977 31.5294 39.0078C31.161 39.0332 30.7709 38.9008 30.6894 38.7001C30.6809 38.4242 30.7079 38.1441 30.6888 37.8682C30.6825 37.774 30.6703 37.6808 30.6497 37.5881C30.557 37.236 30.4554 36.8505 29.9991 36.5958C29.7996 36.4746 29.5 36.4327 29.2014 36.4534C29.023 36.4655 28.8446 36.5005 28.6885 36.554C28.0321 36.7954 27.5981 37.1825 27.2508 37.5627C26.3711 38.5767 25.8905 39.6718 25.7152 40.7578C25.6623 41.1841 25.6544 41.6104 25.6835 42.034C25.7131 42.464 25.7819 42.8913 25.8815 43.3133C26.0715 44.017 26.3012 44.7409 26.9481 45.344C27.2455 45.64 27.7373 45.9069 28.3815 45.9323C28.4688 45.9376 28.5562 45.9371 28.6424 45.9307C29.0627 45.9016 29.4587 45.7464 29.7112 45.5484C30.421 44.9707 30.6756 44.2823 30.8339 43.6204C30.8519 43.3901 31.0165 43.1105 31.4447 43.0083C31.5082 42.9935 31.5717 42.9845 31.6342 42.9802C32.0556 42.9511 32.4383 43.1402 32.5256 43.3604C32.5351 43.4007 32.541 43.442 32.5436 43.4827C32.5605 43.7279 32.4695 43.9794 32.3864 44.2241C32.1212 44.9199 31.7094 45.6469 30.7958 46.1971C30.2982 46.5185 29.5788 46.7086 28.8547 46.7589C28.7271 46.7679 28.5996 46.7721 28.4725 46.7727C27.4377 46.7938 26.478 46.528 25.8338 46.1182C24.8657 45.4812 24.4152 44.644 24.1558 43.8116C24.0023 43.2757 23.9018 42.7314 23.8637 42.1828C23.8128 41.4515 23.8732 40.7123 24.0674 39.9763C24.375 38.9103 24.9138 37.8206 26.0471 36.8902C26.7289 36.3157 27.7844 35.8132 29.0103 35.7142C29.0569 35.7083 29.1045 35.7046 29.1517 35.7015Z" fill="white"/>
<path d="M39.8938 35.7421C39.9235 35.7389 39.9536 35.7368 39.9833 35.7347C40.6524 35.6897 41.2929 35.8766 41.7163 36.1668C42.4277 36.6799 42.7591 37.3513 42.9888 38.0116C43.2609 38.8716 43.3916 39.9121 43.4636 40.9817C43.5187 41.8025 43.5388 42.6407 43.5616 43.427C43.587 43.427 43.6235 43.4249 43.669 43.4217C43.7468 43.4165 43.85 43.408 43.9644 43.4006C44.2968 43.3783 44.7234 43.3624 44.8949 43.4519C44.9754 43.4938 45.022 43.5562 45.0262 43.6224C45.0326 43.7151 44.9558 43.8147 44.7727 43.875C44.6006 43.9153 44.4233 43.9349 44.2433 43.947C44.0565 43.9597 43.868 43.9645 43.6817 43.9767C43.6304 43.9804 43.579 43.9841 43.5282 43.9889C43.5145 44.7058 43.4859 45.4239 43.5224 46.1382C43.525 46.1493 43.5266 46.1599 43.5272 46.1705C43.5409 46.3749 43.2138 46.547 42.8983 46.584C42.8528 46.5904 42.8057 46.5957 42.7575 46.5989C42.4219 46.6216 42.044 46.5581 41.9344 46.3558C41.927 46.278 41.9206 46.1996 41.9153 46.1212C41.8703 45.4482 41.9026 44.7699 41.8889 44.0953C40.4385 44.2023 38.9897 44.3225 37.5431 44.4607C37.5579 44.9505 37.6008 45.4382 37.6145 45.928C37.622 46.1853 37.6595 46.4591 37.6357 46.6989C37.6188 46.8689 37.3684 46.9642 37.0895 46.9833C36.7771 47.0045 36.4294 46.9293 36.3309 46.754C36.2161 46.0535 36.1769 45.3169 36.1197 44.611C35.9906 44.6238 35.5332 44.6937 35.1876 44.717C35.0277 44.7275 34.8917 44.7286 34.8234 44.709C34.7271 44.6815 34.6609 44.6163 34.6561 44.5454C34.6524 44.4861 34.6911 44.4236 34.7906 44.3754C35.1791 44.215 35.6539 44.1986 36.0885 44.1308C36.0255 42.5581 35.8392 40.6915 36.2171 39.113C36.4389 38.251 36.7237 37.3646 37.4685 36.5856C37.921 36.0831 38.9013 35.8215 39.8393 35.7453C39.8573 35.7448 39.8758 35.7432 39.8938 35.7421ZM39.9166 36.6338C39.5545 36.6582 39.211 36.8123 39.0051 36.9902C38.5075 37.4371 38.2942 37.8983 38.1084 38.4787C37.5748 40.2626 37.5251 42.1715 37.5299 43.9582C38.9776 43.8009 40.43 43.6685 41.8836 43.5541C41.8693 42.6778 41.8561 41.7638 41.7952 40.8589C41.7507 40.198 41.6809 39.5425 41.5665 38.9102C41.4167 38.1906 41.2595 37.66 40.7402 37.014C40.582 36.8255 40.3173 36.6105 39.9192 36.6333L39.9166 36.6338Z" fill="white"/>
<path d="M49.0593 35.8352C50.3233 35.8352 51.5873 35.8394 52.8503 35.8617C53.3521 35.8707 53.8545 35.8617 54.3552 35.894C54.7183 35.9173 55.1127 35.9718 55.1185 36.2175C55.1016 36.4198 54.7511 36.5326 54.459 36.5527C53.512 36.6184 52.5534 36.5924 51.6027 36.6184C51.6932 38.8386 51.7271 41.1177 51.7271 43.3645C51.7271 44.0179 51.7244 44.6687 51.7191 45.3141C51.7123 45.4238 51.7112 45.5334 51.7112 45.643C51.7112 45.7076 51.7117 45.7722 51.7117 45.8363C51.7117 45.9559 51.7101 46.0756 51.7017 46.1953C51.6768 46.5373 51.2195 46.8799 50.6319 46.8799C50.6218 46.8799 50.6123 46.8799 50.6023 46.8794C50.1994 46.8715 49.9305 46.6263 49.9295 46.4034C49.912 43.1812 49.8469 39.8633 49.8215 36.6411C49.7696 36.6411 49.7177 36.6417 49.6664 36.6417C48.8814 36.6417 48.0975 36.6141 47.3119 36.6051C46.8313 36.5998 46.3872 36.4659 46.3872 36.1852C46.3872 36.1699 46.3883 36.154 46.3914 36.1381C46.4385 35.9295 46.8202 35.8363 47.1304 35.8363C47.1341 35.8363 47.1383 35.8363 47.142 35.8363C47.7804 35.8363 48.4198 35.8352 49.0593 35.8352Z" fill="white"/>
<path d="M61.2587 46.7467C61.047 46.7615 60.8347 46.7678 60.6235 46.7657C59.6406 46.7678 58.6523 46.5529 58.0393 46.0975C57.3004 45.5468 57.1379 44.7933 57.0844 44.0784C57.0844 44.0773 57.0844 44.0763 57.0844 44.0752C57.0617 43.7427 57.338 43.3778 57.8737 43.2434C57.9218 43.2312 57.9705 43.2238 58.0187 43.2206C58.2812 43.2026 58.53 43.3069 58.6025 43.453C58.7656 43.7798 58.7439 44.1377 58.8328 44.4761C58.953 44.9315 59.0964 45.1311 59.639 45.4546C59.9439 45.64 60.3837 45.7056 60.8199 45.6754C61.0703 45.658 61.3201 45.6092 61.5414 45.5335C62.4084 45.2269 62.9298 44.9209 63.0685 44.3453C63.1077 44.1573 63.1209 43.9677 63.1082 43.7803C63.0696 43.2185 62.7964 42.6715 62.2941 42.2193C61.4175 41.4536 60.0084 41.0146 58.9286 40.3712C58.06 39.8708 57.4306 39.1867 57.3724 38.4252C57.3708 38.4104 57.3697 38.3956 57.3687 38.3813C57.3057 37.4711 58.1299 36.5142 59.4595 36.0244C59.8518 35.8719 60.3028 35.7771 60.7564 35.7459C61.8854 35.668 63.0103 35.9349 63.5258 36.2166C64.3013 36.6625 64.5347 37.344 64.6554 37.9889C64.6591 38.0101 64.6623 38.0313 64.6634 38.0525C64.684 38.349 64.4654 38.6625 64.0171 38.8129C63.9138 38.8473 63.7942 38.8706 63.6746 38.8785C63.4221 38.896 63.1696 38.8478 63.0706 38.707C63.0251 38.6418 63.0071 38.5714 63.0023 38.4989C62.9944 38.3829 63.0182 38.2616 63.0103 38.1473C63.0097 38.1414 63.0092 38.1356 63.0087 38.1303C62.9695 37.7348 62.9213 37.3021 62.5503 36.9749C62.3687 36.7869 61.336 36.4914 60.8051 36.5952C60.777 36.6005 60.7479 36.6 60.7193 36.6032C60.1154 36.6582 59.5977 36.9426 59.3426 37.2746C59.1261 37.5674 59.0371 37.8836 59.0583 38.1944C59.0827 38.547 59.2494 38.8918 59.5352 39.1846C60.1027 39.7411 61.0586 40.0736 61.8886 40.4644C63.0516 40.9876 64.4998 41.9111 64.981 42.7588C65.1964 43.1163 65.3271 43.5018 65.3541 43.8936C65.3928 44.4533 65.2192 45.0247 64.7761 45.542C64.1896 46.2415 62.5826 46.6249 61.3064 46.7429C61.291 46.7445 61.2751 46.7456 61.2587 46.7467Z" fill="white"/>
<path d="M32.5225 11.9978C30.6863 5.76433 25.0071 1.41803 18.5429 1.24435C17.6971 1.22105 16.838 1.2703 15.972 1.39527C15.2145 1.50488 14.4787 1.66903 13.7679 1.88401C13.3703 1.57054 12.9569 1.27824 12.5303 1.00713C12.5298 1.0066 12.5292 1.00607 12.5287 1.00554C12.3186 0.87104 12.1047 0.742895 11.8872 0.620047C11.8872 0.620047 11.8866 0.618988 11.8861 0.619518C11.885 0.618988 11.8845 0.617929 11.8829 0.617929C10.8798 0.103765 9.71425 -0.114927 8.51426 0.0587559C8.37875 0.0783482 8.24431 0.102706 8.1125 0.13183C7.98017 0.160424 7.84996 0.193784 7.72186 0.231909C7.7335 0.29704 7.74515 0.361112 7.75891 0.425184C8.0294 1.73469 8.74241 2.85356 9.7169 3.64625C9.76189 3.67008 9.80742 3.69444 9.85241 3.71986C9.84447 3.72462 9.83653 3.72939 9.82965 3.73521C7.76315 5.10561 6.07564 6.96529 4.90847 9.1252C4.62422 9.65048 4.37067 10.1932 4.14994 10.7514C3.94509 11.2713 3.76777 11.804 3.62114 12.3473C4.15682 11.7664 4.73961 11.2274 5.36369 10.7355C5.59025 10.557 5.82262 10.3849 6.06029 10.2192C7.91824 8.92239 10.0985 8.02856 12.4938 7.68173C13.1279 7.59012 13.7578 7.53929 14.3819 7.52764C14.4359 7.59489 14.4893 7.66266 14.5417 7.73044C14.6963 7.93113 14.8466 8.13605 14.9911 8.34575C16.2737 10.1964 17.1587 12.3653 17.5028 14.7455C17.9067 17.5387 17.5145 20.2637 16.4981 22.6899C18.805 19.6086 19.934 15.6462 19.3396 11.535C19.1702 10.3648 18.8706 9.24593 18.4567 8.1906V8.19007C18.4313 8.12494 18.4053 8.05928 18.3783 7.99467C19.1972 8.20489 19.9928 8.48342 20.7566 8.82496C20.7608 8.82655 20.7645 8.82867 20.7688 8.83026C21.1171 8.97693 21.4558 9.14426 21.783 9.33118C21.7872 9.3333 21.7904 9.33542 21.7946 9.33754C24.2142 10.7243 25.9943 13.1713 26.4247 16.1461C27.1874 21.4196 23.6092 26.0439 18.4768 26.7868C18.1237 26.8382 17.7722 26.8684 17.4239 26.88C17.4218 26.8805 17.4197 26.88 17.4171 26.88C16.8014 26.9001 16.1954 26.8583 15.6057 26.7614C15.6041 26.7609 15.603 26.7609 15.602 26.7609C15.1219 26.7005 14.6476 26.6158 14.1807 26.5093C13.7366 26.4087 13.2994 26.288 12.8701 26.1482C10.9645 25.5281 9.2098 24.5342 7.70757 23.2401C8.2226 23.0214 8.69423 22.7296 9.1124 22.3786C9.42259 22.1196 9.70314 21.8279 9.94927 21.5086C9.9498 21.508 9.95033 21.5075 9.95139 21.5064C10.2039 21.1808 10.4204 20.8276 10.5966 20.4527C10.5972 20.4522 10.5977 20.4516 10.5977 20.4511C10.8359 19.8602 10.9259 19.2004 10.828 18.5237C10.7597 18.0518 10.6062 17.6134 10.3849 17.2226C9.87094 16.3118 8.99172 15.6552 7.97329 15.4207C7.53606 15.319 7.0729 15.2962 6.6018 15.3645C5.22871 15.5631 4.13935 16.4861 3.66402 17.6902C3.47081 18.18 3.37871 18.7164 3.411 19.2692V19.2697C3.41047 19.2703 3.41047 19.2703 3.411 19.2708V19.2713C3.50522 19.7389 3.62114 20.1969 3.75771 20.6449C3.75771 20.6454 3.75771 20.6454 3.75771 20.646C3.8911 21.086 4.04408 21.516 4.21505 21.9359C2.45556 21.7453 0.896155 20.7296 0 19.2359C0.522977 21.6992 2.6133 23.481 5.05668 23.6732C6.02588 25.3836 7.31586 26.8705 8.83292 28.0651H8.83345C9.48664 28.5792 10.1816 29.0394 10.9116 29.4397C13.6689 30.9531 16.9211 31.615 20.2728 31.1299C23.8161 30.6174 26.891 28.9049 29.1459 26.4638C32.1128 23.2523 33.6595 18.7778 32.9846 14.1122C32.8788 13.3868 32.7242 12.6809 32.5225 11.9978ZM5.29647 19.3206C5.14879 18.3007 5.85597 17.3539 6.87599 17.2067C7.89548 17.059 8.84192 17.7664 8.98907 18.7863C9.0907 19.4895 8.78687 20.1572 8.25383 20.5528C8.01352 20.7318 7.72662 20.8546 7.41008 20.9007C6.39059 21.0484 5.44415 20.341 5.29647 19.3206Z" fill="white"/>
<path d="M42.5618 31.6576C41.0432 31.6576 39.588 31.3182 38.2372 30.6484C38.2303 30.6452 38.2229 30.642 38.216 30.6388C37.8249 30.4435 37.4437 30.2205 37.0833 29.9754C37.0759 29.9701 37.0684 29.9648 37.061 29.9589C36.2681 29.3643 35.6292 28.5758 35.2131 27.6778C35.094 27.421 34.9929 27.1546 34.9135 26.8867C34.912 26.8814 34.9104 26.8761 34.9088 26.8708C34.8378 26.6336 34.7807 26.3868 34.7399 26.1363C34.6272 25.538 34.5695 24.9232 34.5695 24.31C34.5695 23.6894 34.6282 23.0694 34.7436 22.4646C34.5345 22.1766 34.3509 21.8679 34.1958 21.5459C33.8057 20.7321 33.6082 19.8599 33.6082 18.9518C33.6082 18.6103 33.6368 18.2703 33.6934 17.9415C33.7019 17.888 33.7125 17.8298 33.7241 17.7731C33.8147 17.3193 33.9586 16.8745 34.1524 16.4514C34.1952 16.3582 34.2741 16.2873 34.371 16.2544C34.5102 16.2078 34.6515 16.1655 34.7902 16.13C34.7939 16.1289 34.7971 16.1284 34.8008 16.1274C35.1941 16.0278 35.9521 15.9531 36.0733 15.9452V15.9447C36.1416 15.942 36.2125 15.9404 36.2893 15.9404C37.169 15.9404 38.0159 16.1263 38.8068 16.4932C39.0852 16.6219 39.3541 16.7723 39.6087 16.9428C40.11 16.7834 40.6282 16.6648 41.1517 16.5891C42.0812 16.4546 43.043 16.4546 43.9725 16.5891C44.496 16.6648 45.0142 16.784 45.5155 16.9428C45.7701 16.7728 46.0395 16.6219 46.3185 16.4932C47.1082 16.1268 47.9552 15.941 48.8349 15.941C48.9106 15.941 48.9805 15.942 49.0477 15.9447C49.0482 15.9447 49.0493 15.9447 49.0498 15.9447C49.4791 15.9595 49.9079 16.0209 50.3239 16.1274C50.3271 16.1279 50.3303 16.1289 50.3334 16.1295C50.4721 16.1655 50.6135 16.2073 50.7527 16.2539C50.8495 16.2867 50.9289 16.3577 50.9713 16.4509C51.165 16.874 51.309 17.3188 51.3995 17.7742C51.4106 17.8287 51.4212 17.8869 51.4307 17.9452C51.4868 18.2698 51.5154 18.6097 51.5154 18.9513C51.5154 19.8589 51.318 20.7315 50.9279 21.5449V21.5454C50.7728 21.8673 50.5891 22.1761 50.38 22.4641C50.4959 23.0694 50.5542 23.6894 50.5542 24.3095C50.5542 24.9232 50.497 25.5375 50.3843 26.1358C50.343 26.3884 50.2858 26.6373 50.2138 26.8761C50.2127 26.8793 50.2122 26.8819 50.2112 26.8851C50.1312 27.1535 50.0301 27.4199 49.911 27.6778C49.495 28.5753 48.8561 29.3638 48.0631 29.9589C48.0557 29.9648 48.0483 29.9701 48.0409 29.9754C47.6804 30.22 47.2993 30.4435 46.9081 30.6388C46.9013 30.6426 46.8939 30.6457 46.887 30.6489C45.5351 31.3182 44.0805 31.6576 42.5618 31.6576ZM38.5347 29.9685C38.5426 29.9722 38.5511 29.9759 38.5585 29.9796C39.8056 30.6002 41.1538 30.9158 42.5618 30.9158C43.9698 30.9158 45.318 30.6002 46.5688 29.9775C46.5752 29.9743 46.5821 29.9711 46.589 29.9679C46.942 29.7911 47.2861 29.5893 47.6116 29.3691C48.3098 28.847 48.872 28.1538 49.2377 27.3648C49.3425 27.1387 49.4309 26.9047 49.5008 26.6696C49.5013 26.6674 49.5019 26.6653 49.5029 26.6632C49.5029 26.6627 49.5035 26.6622 49.5035 26.6616C49.5664 26.4525 49.6167 26.2338 49.6527 26.0119C49.6532 26.0087 49.6538 26.0055 49.6543 26.0024C49.7591 25.448 49.8126 24.8782 49.8126 24.309C49.8126 23.6831 49.748 23.0572 49.621 22.4503C49.5987 22.3444 49.6241 22.2338 49.6903 22.148C49.9105 21.8621 50.1021 21.5512 50.2593 21.224C50.6007 20.5118 50.7738 19.7466 50.7738 18.9513C50.7738 18.6521 50.749 18.3545 50.6992 18.067C50.6907 18.0151 50.6823 17.968 50.6727 17.9208C50.6034 17.5735 50.4991 17.2335 50.362 16.9079C50.2932 16.8867 50.2244 16.8676 50.1561 16.8496C50.1529 16.8491 50.1503 16.848 50.1471 16.8475C49.7808 16.7532 49.4034 16.6987 49.0255 16.6855C49.0239 16.6855 49.0223 16.6855 49.0207 16.6855C48.9619 16.6833 48.9011 16.6823 48.8333 16.6823C48.0621 16.6823 47.32 16.8454 46.6276 17.1663C46.3328 17.3024 46.0506 17.4665 45.7886 17.654C45.6917 17.7233 45.5668 17.7419 45.4541 17.7037C44.9406 17.5295 44.406 17.4014 43.865 17.323C43.0065 17.1986 42.1156 17.1986 41.257 17.323C40.7161 17.4014 40.1814 17.5295 39.668 17.7037C39.5552 17.7424 39.4303 17.7239 39.3334 17.654C39.0714 17.4665 38.7893 17.3024 38.495 17.1663C37.8021 16.8448 37.0605 16.6818 36.2887 16.6818C36.2247 16.6818 36.1665 16.6828 36.1109 16.6849C35.8992 16.704 35.2682 16.7723 34.9755 16.8475C34.9723 16.848 34.9697 16.8491 34.9665 16.8496C34.8982 16.8671 34.8294 16.8867 34.7606 16.9079C34.6235 17.2335 34.5192 17.5729 34.4504 17.9192C34.4403 17.968 34.4319 18.0151 34.4244 18.0627C34.3742 18.3545 34.3493 18.6521 34.3493 18.9513C34.3493 19.7471 34.5224 20.5118 34.8638 21.224C35.021 21.5512 35.2126 21.8621 35.4328 22.148C35.499 22.2338 35.5244 22.3444 35.5022 22.4503C35.3751 23.0577 35.3105 23.6831 35.3105 24.309C35.3105 24.8777 35.364 25.4474 35.4688 26.0024C35.4693 26.0055 35.4699 26.0087 35.4704 26.0119C35.5064 26.2338 35.5567 26.4525 35.6197 26.6616C35.6207 26.6653 35.6218 26.669 35.6228 26.6727C35.6927 26.9073 35.7806 27.1403 35.8854 27.3659C36.2512 28.1549 36.8133 28.848 37.5115 29.3701C37.8376 29.5904 38.1816 29.7916 38.5347 29.9685ZM38.5543 29.978C38.5543 29.978 38.5548 29.978 38.5548 29.9785C38.5548 29.978 38.5543 29.978 38.5543 29.978ZM38.5363 29.9695C38.5384 29.9706 38.541 29.9717 38.5432 29.9727C38.541 29.9717 38.5389 29.9706 38.5363 29.9695ZM49.495 26.6971V26.6976V26.6971Z" fill="white"/>
<path d="M35.9097 21.3767C35.8086 21.3767 35.7154 21.319 35.671 21.2263C35.4116 20.6846 35.2798 20.1032 35.2798 19.499C35.2798 18.9097 35.4052 18.342 35.6524 17.8125C35.6868 17.7384 35.7541 17.6844 35.834 17.6664C36.123 17.6007 36.4216 17.5679 36.7206 17.5679C37.4241 17.5679 38.1165 17.7537 38.722 18.1048C38.8146 18.1588 38.866 18.2626 38.8517 18.369C38.8374 18.4755 38.7607 18.5623 38.6569 18.5898C37.4077 18.9208 36.4538 19.9099 36.168 21.1707C36.1431 21.2809 36.0516 21.3624 35.9393 21.3751C35.9293 21.3762 35.9192 21.3767 35.9097 21.3767ZM36.0791 18.1556C35.9002 18.5803 35.8091 19.0315 35.8091 19.4985C35.8091 19.7723 35.8403 20.0402 35.9017 20.3007C36.2982 19.4132 37.0049 18.7021 37.8931 18.3002C37.5188 18.1657 37.1219 18.0963 36.7201 18.0963C36.5047 18.0969 36.2892 18.1165 36.0791 18.1556Z" fill="white"/>
<path d="M49.171 21.3773C49.1609 21.3773 49.1508 21.3768 49.1413 21.3757C49.0296 21.363 48.9381 21.2809 48.9132 21.1713C48.6279 19.91 47.6745 18.9208 46.4248 18.5899C46.3211 18.5624 46.2443 18.4755 46.2305 18.3691C46.2162 18.2632 46.2671 18.1589 46.3597 18.1048C46.9647 17.7532 47.6565 17.5674 48.3606 17.5674C48.6607 17.5674 48.9592 17.6007 49.2477 17.6659C49.3276 17.6839 49.3943 17.7379 49.4287 17.812C49.6759 18.3415 49.8014 18.9092 49.8014 19.4991C49.8014 20.1043 49.6696 20.6857 49.4097 21.2274C49.3652 21.3196 49.2721 21.3773 49.171 21.3773ZM47.1876 18.3008C48.0763 18.7027 48.783 19.4144 49.1794 20.3024C49.2414 20.0418 49.2721 19.7734 49.2721 19.4991C49.2721 19.0315 49.1815 18.5804 49.0021 18.1562C48.792 18.117 48.5765 18.0969 48.36 18.0969C47.9583 18.0969 47.5613 18.1663 47.1876 18.3008Z" fill="white"/>
<path d="M43.8845 27.0068C43.559 27.54 43.1038 27.9848 42.5633 28.2983C42.0398 27.9954 41.5968 27.5692 41.2744 27.0592C41.7 26.8903 42.1642 26.7971 42.6501 26.7971C43.0826 26.7971 43.4981 26.8707 43.8845 27.0068Z" fill="white"/>
<path d="M45.3747 23.923C45.3747 23.9558 45.3752 23.9881 45.3758 24.0204C45.3832 24.3058 45.4223 24.5828 45.4901 24.8486H45.4906C45.6023 25.2876 45.7918 25.6958 46.0443 26.057C46.2968 25.6958 46.4863 25.2876 46.5985 24.8481C46.6657 24.5838 46.7049 24.3079 46.7128 24.0241C46.7134 23.9908 46.7139 23.9569 46.7139 23.923C46.7139 23.8923 46.7134 23.8616 46.7128 23.8309C46.706 23.547 46.6673 23.2712 46.6006 23.0069C46.4889 22.5642 46.2984 22.1533 46.0443 21.7896C45.7902 22.1533 45.5997 22.5642 45.488 23.0069C45.4213 23.2712 45.3826 23.547 45.3758 23.8303C45.3752 23.861 45.3747 23.8923 45.3747 23.923Z" fill="white"/>
<path d="M46.0443 27.1992C45.4229 27.1992 44.8274 27.0605 44.2742 26.7862C44.2711 26.7846 44.2679 26.783 44.2647 26.782C44.1694 26.7343 44.0757 26.683 43.9863 26.6295C43.9794 26.6258 43.973 26.6215 43.9667 26.6173C43.7428 26.468 43.5522 26.2816 43.3987 26.0629C43.394 26.0565 43.3897 26.0502 43.3855 26.0438C43.3257 25.949 43.268 25.8479 43.2145 25.7441C43.2135 25.742 43.2124 25.7404 43.2119 25.7383C43.2082 25.7319 43.205 25.7251 43.2018 25.7187C42.9202 25.1585 42.7773 24.5548 42.7773 23.9236C42.7773 23.266 42.9403 22.6147 43.2489 22.0401L43.2701 22.0009C43.2786 21.9851 43.2876 21.9692 43.2971 21.9533C43.3061 21.9379 43.3151 21.922 43.3246 21.9067C43.3246 21.9062 43.3273 21.9019 43.3278 21.9019C43.3373 21.8866 43.3468 21.8717 43.3564 21.8569C43.359 21.8521 43.3622 21.8479 43.3648 21.8437L43.368 21.8389C43.368 21.8384 43.3685 21.8384 43.3685 21.8379C43.3765 21.8257 43.3844 21.814 43.3924 21.8024C43.394 21.7997 43.3966 21.796 43.3998 21.7918C43.4024 21.7875 43.4056 21.7838 43.4082 21.7801L43.4225 21.7605C43.4262 21.7547 43.4305 21.7494 43.4352 21.7431C43.4389 21.7383 43.4427 21.733 43.4464 21.7282C43.449 21.7245 43.4522 21.7203 43.4559 21.7155C43.4585 21.7124 43.4612 21.7087 43.4638 21.7055C43.4707 21.6965 43.4776 21.6875 43.485 21.679C43.4871 21.6758 43.4898 21.6726 43.4924 21.6695C43.494 21.6673 43.4961 21.6647 43.4977 21.6626C43.4993 21.6605 43.5014 21.6583 43.503 21.6562C43.5046 21.6541 43.5062 21.6525 43.5078 21.6504C43.5088 21.6493 43.5099 21.6478 43.5109 21.6467C43.512 21.6451 43.5136 21.6435 43.5146 21.6425C43.5168 21.6403 43.5183 21.6377 43.5205 21.6356C43.5247 21.6303 43.5289 21.6255 43.5332 21.6208C43.5348 21.6186 43.5369 21.6165 43.5385 21.6149C43.5448 21.6075 43.5512 21.6001 43.558 21.5922C43.5649 21.5842 43.5718 21.5768 43.5792 21.5689C43.5925 21.5546 43.6057 21.5403 43.6189 21.5265C43.6295 21.5154 43.6438 21.5011 43.6576 21.4878C43.6697 21.4762 43.6819 21.464 43.6946 21.4529C43.7147 21.4338 43.7354 21.4153 43.7565 21.3978C43.764 21.3909 43.7719 21.3846 43.7793 21.3782C43.7798 21.3777 43.7809 21.3772 43.7814 21.3766C43.7846 21.3735 43.7883 21.3708 43.792 21.3676C43.7931 21.3666 43.7978 21.3629 43.7989 21.3618L43.8047 21.357C43.8111 21.3518 43.8169 21.347 43.8232 21.3422C43.8269 21.339 43.8306 21.3364 43.8344 21.3337C43.8375 21.3311 43.8412 21.3285 43.8444 21.3258C43.8449 21.3253 43.8455 21.3247 43.846 21.3247C43.8539 21.3184 43.8624 21.312 43.8709 21.3057C43.8725 21.3046 43.8735 21.3036 43.8751 21.3025C43.8783 21.3004 43.8809 21.2983 43.8841 21.2962C43.8905 21.2914 43.8968 21.2872 43.9032 21.2824C43.9069 21.2797 43.9106 21.2771 43.9143 21.2744C43.9206 21.2697 43.927 21.2649 43.9339 21.2607C43.9365 21.2591 43.9386 21.2575 43.9413 21.2559C43.9545 21.2464 43.9683 21.2374 43.9815 21.2289C43.9857 21.2263 43.9894 21.2241 43.9937 21.2215C44.08 21.1696 44.1684 21.1209 44.2562 21.0775C44.2594 21.0759 44.2626 21.0743 44.2663 21.0727C44.8205 20.7963 45.4181 20.6565 46.0432 20.6565C46.661 20.6565 47.2533 20.7936 47.8033 21.0648C47.8054 21.0658 47.8075 21.0669 47.8096 21.0674C47.9176 21.1209 48.0171 21.1754 48.1103 21.2321C48.1161 21.2353 48.1214 21.2384 48.1272 21.2421C48.1352 21.2469 48.1431 21.2522 48.151 21.258C48.3824 21.4169 48.5777 21.616 48.7312 21.8516C48.7338 21.8553 48.7359 21.859 48.7381 21.8627C48.7857 21.9416 48.8307 22.0227 48.8725 22.1047C48.873 22.1053 48.8752 22.1106 48.8757 22.1111C48.8773 22.1137 48.8783 22.1169 48.8799 22.1196C49.1652 22.6819 49.3097 23.2893 49.3097 23.9236C49.3097 24.5596 49.1652 25.1669 48.8799 25.7293C48.8794 25.7309 48.8783 25.7319 48.8778 25.7335C48.8752 25.7383 48.873 25.7436 48.8704 25.7484C48.8206 25.8453 48.7661 25.9416 48.7079 26.0348C48.7042 26.0412 48.7 26.047 48.6957 26.0528C48.5433 26.2747 48.3511 26.4637 48.1251 26.6147C48.124 26.6157 48.1225 26.6162 48.1214 26.6173C48.1161 26.6205 48.1113 26.6242 48.1055 26.6268C48.0092 26.6846 47.9134 26.737 47.8202 26.783C47.8191 26.7836 47.8176 26.7841 47.8165 26.7846C47.8123 26.7867 47.8086 26.7889 47.8043 26.7905C47.2543 27.0616 46.662 27.1992 46.0443 27.1992ZM44.5082 26.3112C44.5087 26.3112 44.5092 26.3118 44.5092 26.3118C44.9888 26.5495 45.5054 26.6697 46.0443 26.6697C46.5826 26.6697 47.0982 26.5495 47.5767 26.3128C47.5772 26.3128 47.5772 26.3123 47.5778 26.3123C47.582 26.3102 47.5862 26.3081 47.5905 26.3065C47.6693 26.2673 47.7503 26.2228 47.8324 26.1736C47.8334 26.173 47.8345 26.1725 47.8356 26.1714C48.0055 26.0571 48.1494 25.9146 48.2638 25.7478C48.2643 25.7468 48.2648 25.7462 48.2654 25.7452C48.3146 25.6658 48.3607 25.5837 48.4025 25.5016C48.403 25.5005 48.4035 25.4995 48.4041 25.4984C48.4067 25.4921 48.4099 25.4862 48.4136 25.4799C48.6576 24.9949 48.7815 24.4712 48.7815 23.9231C48.7815 23.3698 48.655 22.8413 48.4056 22.3515C48.4035 22.3473 48.4014 22.3435 48.3998 22.3393C48.367 22.2747 48.3289 22.2064 48.2892 22.1407C48.1722 21.9618 48.0229 21.8098 47.8461 21.6896C47.8456 21.6896 47.8456 21.6891 47.8451 21.6891C47.8435 21.688 47.8419 21.6875 47.8408 21.6864C47.762 21.6382 47.6762 21.5911 47.5862 21.5466C47.5831 21.545 47.5799 21.544 47.5772 21.5424C47.0987 21.3057 46.5832 21.1855 46.0448 21.1855C45.4996 21.1855 44.9788 21.3083 44.496 21.5503C44.4923 21.5519 44.4886 21.554 44.4849 21.5556C44.4119 21.5922 44.3377 21.6329 44.2658 21.6769C44.2658 21.6769 44.2652 21.6769 44.2652 21.6774C44.2642 21.6779 44.2636 21.6785 44.2626 21.679C44.2568 21.6827 44.2515 21.6864 44.2456 21.6906C44.2419 21.6933 44.2377 21.6965 44.2335 21.6991C44.2319 21.7002 44.2298 21.7012 44.2282 21.7028C44.225 21.7049 44.2218 21.7076 44.2186 21.7097C44.2134 21.7139 44.2081 21.7177 44.2028 21.7208C44.2001 21.7229 44.1975 21.7245 44.1954 21.7267C44.1917 21.7298 44.1879 21.7325 44.1837 21.7351C44.1805 21.7372 44.1768 21.7399 44.1737 21.7425C44.1721 21.7441 44.17 21.7452 44.1684 21.7468C44.1657 21.7489 44.1631 21.751 44.1599 21.7531C44.1594 21.7537 44.1594 21.7537 44.1604 21.7526C44.1557 21.7568 44.1504 21.7611 44.1451 21.7648L44.1308 21.7764C44.1303 21.777 44.1292 21.7775 44.1281 21.7785C44.125 21.7817 44.1213 21.7844 44.1175 21.7875L44.108 21.7955C44.1054 21.7976 44.1022 21.8008 44.0995 21.8029C44.0847 21.8151 44.0699 21.8289 44.0561 21.8421C44.0546 21.8437 44.0535 21.8447 44.0519 21.8463C44.045 21.8527 44.0376 21.8596 44.0313 21.8659C44.0297 21.8675 44.0281 21.8691 44.0265 21.8707C44.017 21.8797 44.008 21.8892 43.9984 21.8987C43.9852 21.912 43.9762 21.922 43.9672 21.9316C43.9667 21.9321 43.9656 21.9332 43.9651 21.9337C43.8873 22.0285 43.8873 22.0285 43.8058 22.1381C43.8047 22.1402 43.8031 22.1418 43.8021 22.1439C43.7947 22.155 43.7872 22.1662 43.7804 22.1773C43.7714 22.1926 43.7634 22.2053 43.7565 22.218C43.7555 22.2196 43.7544 22.2218 43.7534 22.2233C43.7475 22.2334 43.7423 22.2429 43.7364 22.253L43.7153 22.2922C43.4485 22.7889 43.3071 23.3539 43.3071 23.9242C43.3071 24.4733 43.4321 24.9991 43.6777 25.4862C43.6782 25.4873 43.6787 25.4884 43.6793 25.4894C43.6824 25.4953 43.6856 25.5011 43.6883 25.5074C43.7322 25.5927 43.7788 25.6748 43.8275 25.7526C43.8275 25.7531 43.828 25.7531 43.828 25.7537C43.9429 25.9199 44.0874 26.0618 44.2568 26.1752C44.333 26.2212 44.4134 26.2657 44.4955 26.3065C44.4997 26.307 44.504 26.3091 44.5082 26.3112ZM43.2182 25.7484C43.2187 25.7489 43.2187 25.7489 43.2182 25.7484C43.2187 25.7489 43.2187 25.7489 43.2182 25.7484ZM48.403 25.5016C48.4025 25.5027 48.4019 25.5037 48.4014 25.5048L48.403 25.5016ZM43.7756 22.1741C43.7756 22.1741 43.7751 22.1746 43.7756 22.1741C43.7751 22.1746 43.7756 22.1741 43.7756 22.1741ZM43.7761 22.1736C43.7756 22.1736 43.7756 22.1741 43.7761 22.1736C43.7756 22.1741 43.7756 22.1736 43.7761 22.1736ZM43.7761 22.173C43.7761 22.1736 43.7761 22.1736 43.7761 22.173C43.7761 22.1736 43.7761 22.1736 43.7761 22.173ZM43.7015 21.831H43.702H43.7015ZM44.2414 21.6906C44.2414 21.6912 44.2414 21.6912 44.2414 21.6906C44.2414 21.6912 44.2414 21.6912 44.2414 21.6906ZM43.7724 21.3851C43.7724 21.3856 43.7719 21.3856 43.7724 21.3851C43.7719 21.3856 43.7724 21.3856 43.7724 21.3851ZM43.773 21.3846C43.773 21.3846 43.773 21.3851 43.773 21.3846C43.773 21.3851 43.773 21.3846 43.773 21.3846ZM43.774 21.3835C43.7735 21.3841 43.773 21.3841 43.773 21.3846C43.7735 21.3841 43.774 21.3841 43.774 21.3835Z" fill="white"/>
<path d="M39.9442 23.9003C39.9442 23.9331 39.9437 23.9654 39.9431 23.9977C39.9357 24.2831 39.8965 24.5601 39.8288 24.8259H39.8283C39.7166 25.2649 39.5271 25.6731 39.2746 26.0342C39.0221 25.6731 38.8326 25.2649 38.7204 24.8254C38.6531 24.5611 38.614 24.2852 38.606 24.0014C38.6055 23.9681 38.605 23.9342 38.605 23.9003C38.605 23.8696 38.6055 23.8389 38.606 23.8081C38.6129 23.5243 38.6516 23.2484 38.7183 22.9842C38.8299 22.5415 39.0205 22.1306 39.2746 21.7668C39.5287 22.1306 39.7192 22.5415 39.8309 22.9842C39.8976 23.2484 39.9362 23.5243 39.9431 23.8076C39.9437 23.8383 39.9442 23.8696 39.9442 23.9003Z" fill="white"/>
<path d="M39.2745 27.1765C38.6541 27.1765 38.0597 27.0378 37.507 26.7646C37.5039 26.7635 37.5012 26.7619 37.498 26.7603C37.4043 26.7137 37.307 26.6608 37.2096 26.6025C37.2064 26.6004 37.2032 26.5988 37.2 26.5967C37.1974 26.5951 37.1953 26.5935 37.1926 26.5919C36.9666 26.4405 36.7744 26.2515 36.6215 26.0296C36.6172 26.0238 36.6135 26.018 36.6098 26.0121C36.5516 25.9189 36.4971 25.8226 36.4473 25.7257C36.4447 25.7204 36.442 25.7156 36.4394 25.7103C36.4389 25.7092 36.4378 25.7077 36.4373 25.7066C36.152 25.1442 36.0074 24.5364 36.0074 23.9009C36.0074 23.2671 36.152 22.6608 36.4362 22.099C36.4373 22.0958 36.4389 22.0931 36.4404 22.0905L36.4441 22.0831C36.4865 22.0005 36.5315 21.9189 36.5791 21.84C36.5818 21.8363 36.5839 21.8321 36.5865 21.8284C36.7406 21.5922 36.9364 21.3926 37.1688 21.2337C37.1714 21.2321 37.1741 21.23 37.1767 21.2284C37.1799 21.2263 37.1836 21.2242 37.1868 21.2221C37.1937 21.2178 37.2 21.2136 37.2069 21.2099C37.3001 21.1532 37.4001 21.0987 37.5039 21.0468C37.507 21.0452 37.5102 21.0436 37.5134 21.042C38.0628 20.7715 38.6552 20.6338 39.2734 20.6338C39.8986 20.6338 40.4967 20.7741 41.0509 21.0505C41.0541 21.0521 41.0573 21.0532 41.0604 21.0548C41.1483 21.0987 41.2367 21.1469 41.323 21.1988C41.3272 21.2009 41.3309 21.2036 41.3346 21.2057C41.3484 21.2141 41.3616 21.2237 41.3754 21.2332C41.378 21.2348 41.3801 21.2364 41.3828 21.238C41.3897 21.2422 41.396 21.247 41.4024 21.2517C41.4061 21.2544 41.4098 21.257 41.4135 21.2597C41.4204 21.2644 41.4273 21.2692 41.4336 21.2745C41.4357 21.2761 41.4384 21.2777 41.4405 21.2793C41.4421 21.2803 41.4431 21.2814 41.4447 21.2825C41.4537 21.2888 41.4622 21.2952 41.4707 21.302C41.4738 21.3042 41.477 21.3068 41.4797 21.3089C41.4844 21.3126 41.4887 21.3158 41.4929 21.3195C41.4992 21.3243 41.5051 21.329 41.5114 21.3343L41.5247 21.3449C41.5284 21.3481 41.5321 21.3513 41.5358 21.3545L41.5368 21.3555C41.5448 21.3619 41.5522 21.3682 41.5601 21.3751C41.5813 21.3931 41.6019 21.4117 41.622 21.4302C41.6348 21.4413 41.6469 21.4535 41.6591 21.4651C41.6729 21.4784 41.6861 21.4916 41.6999 21.5059C41.7131 21.5191 41.7258 21.5329 41.738 21.5462C41.7454 21.5536 41.7528 21.5615 41.7591 21.5695C41.766 21.5769 41.7724 21.5843 41.7787 21.5917C41.7835 21.597 41.7877 21.6018 41.792 21.607C41.7935 21.6086 41.7967 21.6108 41.8015 21.616C41.8777 21.7045 41.8793 21.7008 41.955 21.8236C41.9576 21.8279 41.9608 21.8321 41.9635 21.8369C41.973 21.8517 41.982 21.8655 41.9905 21.8792C42.001 21.8972 42.0111 21.9142 42.0206 21.9311C42.0302 21.947 42.0386 21.9624 42.0476 21.9788L42.0683 22.0174C42.3769 22.5925 42.5399 23.2438 42.5399 23.9015C42.5399 24.5321 42.397 25.1352 42.1159 25.6949C42.1127 25.7024 42.109 25.7098 42.1048 25.7167C42.1043 25.7182 42.1032 25.7198 42.1021 25.7214C42.0487 25.8252 41.9915 25.9263 41.9312 26.0217C41.9269 26.028 41.9227 26.0349 41.9179 26.0407C41.7644 26.2599 41.5728 26.4469 41.3489 26.5962C41.3484 26.5967 41.3473 26.5972 41.3468 26.5978C41.342 26.601 41.3373 26.6036 41.3325 26.6068C41.243 26.6608 41.1488 26.7122 41.0525 26.7603C41.0509 26.7609 41.0493 26.7619 41.0483 26.7625C41.0446 26.7646 41.0403 26.7662 41.0366 26.7683C40.4866 27.0389 39.8933 27.1765 39.2745 27.1765ZM37.741 26.2896C37.7415 26.2896 37.7415 26.2901 37.7421 26.2901C38.2206 26.5268 38.7361 26.647 39.2745 26.647C39.8133 26.647 40.33 26.5268 40.8095 26.2891C40.8101 26.2891 40.8106 26.2885 40.8106 26.2885C40.8148 26.2864 40.8185 26.2843 40.8228 26.2827C40.9053 26.2414 40.9853 26.1975 41.0615 26.1514C41.2309 26.0375 41.3754 25.8956 41.4908 25.7294C41.4908 25.7288 41.4913 25.7288 41.4913 25.7283C41.54 25.6505 41.5871 25.5679 41.6305 25.4831C41.6332 25.4773 41.6363 25.4715 41.6395 25.4657C41.64 25.4646 41.6406 25.463 41.6416 25.462C41.8878 24.9748 42.0122 24.4495 42.0122 23.8999C42.0122 23.3576 41.8846 22.8207 41.6427 22.3415C41.5855 22.2324 41.5855 22.2324 41.5146 22.1149C41.5141 22.1143 41.5135 22.1138 41.5135 22.1127C41.513 22.1122 41.5125 22.1117 41.5125 22.1106C41.5104 22.1074 41.5077 22.1037 41.5056 22.1006C41.5014 22.0942 41.4971 22.0879 41.4929 22.082C41.4897 22.0778 41.4865 22.0736 41.4839 22.0688L41.4659 22.0439C41.4638 22.0413 41.4617 22.0381 41.4595 22.0354C41.458 22.0333 41.4564 22.0312 41.4548 22.0291L41.4537 22.028C41.4511 22.0248 41.449 22.0222 41.4468 22.019C41.4463 22.018 41.4453 22.0174 41.4447 22.0164C41.4426 22.0137 41.44 22.0105 41.4378 22.0074C41.4357 22.0047 41.4336 22.0021 41.432 21.9994L41.4278 21.9947C41.4251 21.9915 41.4225 21.9883 41.4198 21.9851C41.4177 21.9825 41.4156 21.9798 41.414 21.9772C41.4098 21.9724 41.4055 21.9676 41.4018 21.9629C41.4008 21.9618 41.4003 21.9608 41.3992 21.9597C41.3971 21.9576 41.395 21.9549 41.3928 21.9523L41.3923 21.9518C41.3902 21.9491 41.3881 21.947 41.386 21.9444L41.3812 21.9391C41.3791 21.9369 41.377 21.9343 41.3754 21.9322C41.3748 21.9311 41.3759 21.9322 41.3775 21.9343C41.3711 21.9279 41.3648 21.9211 41.359 21.9136C41.3563 21.911 41.3553 21.9099 41.3526 21.9073C41.3436 21.8972 41.3346 21.8877 41.3251 21.8782C41.324 21.8771 41.3224 21.8755 41.3214 21.8745C41.3119 21.8644 41.3023 21.8549 41.2928 21.8459C41.2912 21.8448 41.2902 21.8432 41.2886 21.8416C41.2817 21.8347 41.2743 21.8279 41.2674 21.8215C41.2658 21.8204 41.2647 21.8189 41.2632 21.8178C41.2489 21.8046 41.2346 21.7913 41.2198 21.7786C41.2166 21.776 41.2139 21.7733 41.2108 21.7707L41.2039 21.7654C41.2023 21.7643 41.2007 21.7627 41.1996 21.7617C41.197 21.7595 41.1938 21.7569 41.1906 21.7543L41.1732 21.74C41.1684 21.7368 41.1647 21.7336 41.1605 21.7299C41.1594 21.7294 41.1589 21.7283 41.1578 21.7278C41.1557 21.7262 41.1536 21.7246 41.1515 21.723C41.1494 21.7214 41.1472 21.7198 41.1457 21.7182C41.1425 21.7161 41.1398 21.7135 41.1367 21.7114C41.1324 21.7087 41.1287 21.7055 41.1245 21.7029C41.1218 21.7008 41.1192 21.6992 41.1165 21.6971C41.1112 21.6934 41.106 21.6897 41.1007 21.6859C41.0975 21.6838 41.0943 21.6817 41.0911 21.6791C41.0895 21.678 41.088 21.6769 41.0858 21.6754C41.0816 21.6727 41.0774 21.6695 41.0737 21.6669C41.0678 21.6626 41.0625 21.6589 41.0567 21.6552C41.0557 21.6547 41.0551 21.6542 41.0541 21.6536C40.9816 21.6102 40.908 21.5694 40.8344 21.5324C40.8307 21.5308 40.8275 21.5292 40.8238 21.5276C40.3416 21.2856 39.8202 21.1628 39.275 21.1628C38.7367 21.1628 38.2211 21.283 37.7426 21.5197C37.7394 21.5213 37.7362 21.5229 37.7331 21.5244C37.6415 21.57 37.5573 21.6166 37.479 21.6642C37.4774 21.6653 37.4763 21.6658 37.4748 21.6669C37.4742 21.6669 37.4742 21.6674 37.4737 21.6674C37.2969 21.7876 37.1476 21.9391 37.0306 22.1186C36.9915 22.1837 36.9539 22.2509 36.9195 22.3187C36.9179 22.3224 36.9163 22.3261 36.9142 22.3298C36.6649 22.8196 36.5384 23.3481 36.5384 23.9015C36.5384 24.4495 36.6622 24.9737 36.9063 25.4582C36.9094 25.4641 36.9126 25.4704 36.9158 25.4763C36.9163 25.4773 36.9168 25.4784 36.9174 25.48C36.9592 25.562 37.0058 25.6441 37.055 25.7235C37.0555 25.7241 37.0561 25.7251 37.0566 25.7257C37.1709 25.893 37.3154 26.036 37.4859 26.1503C37.5684 26.2001 37.6505 26.2446 37.7294 26.2838C37.7325 26.2854 37.7368 26.2875 37.741 26.2896ZM42.0995 25.7278C42.0995 25.7283 42.0995 25.7283 42.0995 25.7278C42.0995 25.7283 42.0995 25.7283 42.0995 25.7278ZM41.4802 22.064C41.4802 22.064 41.4807 22.0646 41.4802 22.064C41.4807 22.0646 41.4802 22.064 41.4802 22.064ZM41.4802 22.0635C41.4802 22.064 41.4802 22.064 41.4802 22.0635C41.4802 22.064 41.4802 22.064 41.4802 22.0635ZM41.4548 22.0291C41.4553 22.0296 41.4558 22.0301 41.4558 22.0312C41.4558 22.0312 41.4558 22.0307 41.4553 22.0307C41.4553 22.0301 41.4553 22.0296 41.4548 22.0291ZM41.4548 22.0285C41.4542 22.028 41.4542 22.0275 41.4537 22.027C41.4542 22.0275 41.4542 22.028 41.4548 22.0285ZM41.4537 22.027C41.4537 22.027 41.4532 22.0264 41.4532 22.0259C41.4532 22.0264 41.4532 22.0264 41.4537 22.027ZM41.3812 21.9369C41.3817 21.9369 41.3817 21.9369 41.3812 21.9369C41.3817 21.9369 41.3817 21.9369 41.3812 21.9369ZM41.3786 21.9348C41.3786 21.9354 41.3791 21.9353 41.3796 21.9359C41.3791 21.9359 41.3786 21.9354 41.3786 21.9348ZM41.3616 21.9078C41.3616 21.9083 41.3621 21.9083 41.3616 21.9078C41.3621 21.9083 41.3616 21.9083 41.3616 21.9078ZM41.0774 21.6685C41.0774 21.6685 41.0779 21.6685 41.0774 21.6685C41.0779 21.6685 41.0774 21.6685 41.0774 21.6685ZM41.0726 21.6653C41.0731 21.6653 41.0731 21.6658 41.0737 21.6658C41.0731 21.6658 41.0731 21.6658 41.0726 21.6653ZM41.0721 21.6648C41.0721 21.6653 41.0726 21.6653 41.0721 21.6648C41.0726 21.6653 41.0721 21.6653 41.0721 21.6648ZM41.5474 21.3635C41.5479 21.3635 41.5479 21.364 41.5474 21.3635C41.5479 21.364 41.5479 21.3635 41.5474 21.3635ZM41.5458 21.3619C41.5464 21.3624 41.5469 21.3629 41.5474 21.3635C41.5469 21.3629 41.5464 21.3624 41.5458 21.3619ZM41.5326 21.3502L41.5347 21.3523C41.5342 21.3513 41.5336 21.3508 41.5326 21.3502ZM41.4368 21.275C41.4384 21.2761 41.4394 21.2772 41.441 21.2782C41.4394 21.2772 41.4378 21.2761 41.4368 21.275C41.4363 21.275 41.4368 21.275 41.4368 21.275Z" fill="white"/>
<path d="M67.0994 22.5485C67.0994 25.8077 66.0619 28.8244 64.2987 31.2862C62.3703 28.7598 61.2254 25.6033 61.2254 22.18C61.2254 18.9208 62.2629 15.9041 64.0261 13.4424C65.9544 15.9687 67.0994 19.1252 67.0994 22.5485Z" fill="white"/>
<path d="M70.5109 8.79334C70.5109 10.8548 68.8408 12.5259 66.7802 12.5259C64.72 12.5259 63.0494 10.8548 63.0494 8.79334C63.0494 6.73245 64.72 5.06128 66.7802 5.06128C68.8408 5.06128 70.5109 6.73245 70.5109 8.79334Z" fill="white"/>
<path d="M61.1677 5.42799C61.1677 5.46241 61.1672 5.4963 61.1661 5.53019C61.1476 6.22598 60.9173 6.89953 60.5314 7.47776C60.4647 7.57784 60.3986 7.67845 60.334 7.77906C60.3335 7.78012 60.3324 7.78065 60.3319 7.78171C60.3319 7.78224 60.3319 7.78224 60.3313 7.78277C54.9613 16.074 55.8871 25.4989 57.2199 31.1457C53.9323 25.8166 49.2588 15.41 53.8614 4.35995C53.8614 4.35942 53.8614 4.35942 53.8619 4.35889C53.9757 4.08354 54.0969 3.80872 54.2224 3.53284C54.2229 3.53178 54.2234 3.53125 54.2239 3.53019C54.8867 2.4092 56.1184 1.66575 57.5217 1.69699C59.5585 1.742 61.1677 3.38987 61.1677 5.42799Z" fill="white"/>
<path d="M81.9999 23.4587C81.9999 22.4082 81.8273 21.3984 81.5097 20.4553C80.8057 20.7381 80.1721 21.159 79.6428 21.6848C79.638 21.6891 79.6338 21.6933 79.6295 21.6981C78.6111 20.6803 77.2057 20.0513 75.6527 20.0513C72.5445 20.0513 70.0254 22.5718 70.0254 25.6806C70.0254 28.7899 72.5445 31.3099 75.6527 31.3099C77.2057 31.3099 78.6111 30.6809 79.6295 29.6636C79.6348 29.6695 79.6401 29.6748 79.646 29.6801C80.1753 30.2048 80.8084 30.6247 81.5118 30.907C81.8284 29.9655 81.9999 28.9573 81.9999 27.9093C81.9999 27.1426 81.9083 26.3976 81.7347 25.6843C81.9083 24.971 81.9999 24.2255 81.9999 23.4587ZM74.043 27.5297C73.0124 27.5297 72.1771 26.6941 72.1771 25.6637C72.1771 24.6332 73.0124 23.7976 74.043 23.7976C75.0731 23.7976 75.9084 24.6332 75.9084 25.6637C75.9084 26.6941 75.0731 27.5297 74.043 27.5297Z" fill="white"/>
</svg>
