<svg width="358" height="104" viewBox="0 0 358 104" fill="none" xmlns="http://www.w3.org/2000/svg">
<rect x="20.1163" y="18.2791" width="67.4419" height="67.4419" rx="16.8605" fill="url(#paint0_linear_49_1339)"/>
<path d="M53.5001 72C42.1779 72 33.0001 62.8221 33.0001 51.5C33.0001 40.1779 42.1779 31 53.5001 31C64.8222 31 74.0001 40.1779 74.0001 51.5C74.0001 62.8221 64.8222 72 53.5001 72ZM46.3251 55.6V59.7H51.4501V63.8H55.5501V59.7H57.6001C58.9593 59.7 60.2629 59.16 61.224 58.1989C62.1851 57.2378 62.7251 55.9342 62.7251 54.575C62.7251 53.2158 62.1851 51.9122 61.224 50.9511C60.2629 49.99 58.9593 49.45 57.6001 49.45H49.4001C49.1282 49.45 48.8675 49.342 48.6753 49.1498C48.4831 48.9576 48.3751 48.6968 48.3751 48.425C48.3751 48.1532 48.4831 47.8924 48.6753 47.7002C48.8675 47.508 49.1282 47.4 49.4001 47.4H60.6751V43.3H55.5501V39.2H51.4501V43.3H49.4001C48.0408 43.3 46.7373 43.84 45.7761 44.8011C44.815 45.7622 44.2751 47.0658 44.2751 48.425C44.2751 49.7842 44.815 51.0878 45.7761 52.0489C46.7373 53.01 48.0408 53.55 49.4001 53.55H57.6001C57.8719 53.55 58.1326 53.658 58.3248 53.8502C58.5171 54.0424 58.6251 54.3032 58.6251 54.575C58.6251 54.8468 58.5171 55.1076 58.3248 55.2998C58.1326 55.492 57.8719 55.6 57.6001 55.6H46.3251Z" fill="#E4E4E9"/>
<rect x="103.558" y="18.2791" width="67.4419" height="67.4419" rx="16.8605" fill="url(#paint1_linear_49_1339)"/>
<path d="M134.413 35.0795C130.795 38.6992 130.153 44.4361 130.26 48.7768C130.265 49.0244 130.176 49.2648 130.01 49.4486C129.844 49.6325 129.614 49.7459 129.367 49.7655C125.687 50.0115 121.191 50.7494 117.486 52.722C116.247 53.3852 115.791 54.644 116.087 55.7918C116.377 56.8866 117.305 57.7813 118.567 58.0176C120.338 58.3406 122.092 58.7551 123.82 59.2596C124.65 59.5103 125.392 59.778 125.995 60.0553C126.62 60.3399 127.008 60.5979 127.206 60.7957C127.404 60.9934 127.66 61.3817 127.944 62.0038C128.222 62.6067 128.487 63.3494 128.74 64.1814C129.242 65.8405 129.659 67.7601 129.975 69.4312C130.211 70.6924 131.106 71.6257 132.199 71.9102C133.349 72.2117 134.608 71.7559 135.269 70.5116C137.242 66.8123 137.982 62.3173 138.231 58.6374C138.25 58.3905 138.364 58.1605 138.548 57.9946C138.732 57.8287 138.972 57.7394 139.22 57.7451C143.561 57.8512 149.301 57.2146 152.919 53.5925C155.07 51.4415 156.141 48.5718 156.631 45.7528C157.123 42.9241 157.051 40.0448 156.831 37.7466C156.679 36.0536 155.937 34.4678 154.735 33.2656C153.533 32.0633 151.947 31.3211 150.254 31.1681C147.955 30.9486 145.076 30.8787 142.251 31.3682C139.429 31.8578 136.562 32.9285 134.413 35.0795ZM145.546 37.0256C146.026 37.0256 146.486 37.2161 146.825 37.5553C147.164 37.8945 147.355 38.3545 147.355 38.8342C147.355 39.3139 147.164 39.7739 146.825 40.1131C146.486 40.4523 146.026 40.6428 145.546 40.6428C145.066 40.6428 144.606 40.4523 144.267 40.1131C143.928 39.7739 143.737 39.3139 143.737 38.8342C143.737 38.3545 143.928 37.8945 144.267 37.5553C144.606 37.2161 145.066 37.0256 145.546 37.0256Z" fill="#E4E4E9"/>
<rect x="187" y="18.2791" width="67.4419" height="67.4419" rx="16.8605" fill="url(#paint2_linear_49_1339)"/>
<path d="M238.756 31H228.241C227.354 31 226.563 31.632 226.354 32.5561C225.717 35.3602 223.305 37.3731 220.5 37.3731C217.695 37.3731 215.283 35.3602 214.646 32.5561C214.546 32.1129 214.306 31.7178 213.963 31.4352C213.62 31.1526 213.196 30.9992 212.759 31H202.244C201.649 31 201.078 31.2462 200.657 31.6844C200.236 32.1227 200 32.717 200 33.3368V46.7202C200 47.34 200.236 47.9343 200.657 48.3726C201.078 48.8108 201.649 49.057 202.244 49.057H206.068V69.6632C206.068 70.283 206.305 70.8773 206.726 71.3156C207.146 71.7538 207.717 72 208.312 72H232.688C233.283 72 233.854 71.7538 234.274 71.3156C234.695 70.8773 234.932 70.283 234.932 69.6632V49.057H238.756C239.351 49.057 239.922 48.8108 240.343 48.3726C240.764 47.9343 241 47.34 241 46.7202V33.3368C241 32.717 240.764 32.1227 240.343 31.6844C239.922 31.2462 239.351 31 238.756 31Z" fill="#E4E4E9"/>
<rect x="270.442" y="18.2791" width="67.4419" height="67.4419" rx="16.8605" fill="url(#paint3_linear_49_1339)"/>
<path d="M321.268 36.125H317.17V34.4167C317.17 33.5105 316.882 32.6415 316.369 32.0007C315.857 31.36 315.162 31 314.437 31H292.58C291.855 31 291.16 31.36 290.648 32.0007C290.135 32.6415 289.848 33.5105 289.848 34.4167V36.125H285.732C285.008 36.125 284.313 36.485 283.8 37.1257C283.288 37.7665 283 38.6355 283 39.5417V42.9583C283 45.2237 283.72 47.3963 285.001 48.9982C286.282 50.6001 288.019 51.5 289.83 51.5H290.514C292.17 57.8849 296.695 62.6682 302.142 63.3729V68.5833H298.044C297.682 68.5833 297.334 68.7633 297.078 69.0837C296.822 69.4041 296.678 69.8386 296.678 70.2917C296.678 70.7447 296.822 71.1793 297.078 71.4996C297.334 71.82 297.682 72 298.044 72H308.973C309.335 72 309.683 71.82 309.939 71.4996C310.195 71.1793 310.339 70.7447 310.339 70.2917C310.339 69.8386 310.195 69.4041 309.939 69.0837C309.683 68.7633 309.335 68.5833 308.973 68.5833H304.875V63.3729C307.537 63.046 310.062 61.7456 312.137 59.634C314.211 57.5223 315.742 54.6932 316.538 51.5H317.17C318.981 51.5 320.718 50.6001 321.999 48.9982C323.28 47.3963 324 45.2237 324 42.9583V39.5417C324 38.6355 323.712 37.7665 323.2 37.1257C322.687 36.485 321.992 36.125 321.268 36.125ZM289.83 48.0833C288.744 48.0833 287.701 47.5434 286.933 46.5823C286.164 45.6211 285.732 44.3176 285.732 42.9583V39.5417H289.848V46.1828C289.85 46.8177 289.879 47.4521 289.933 48.0833H289.83ZM321.268 42.9583C321.263 44.3158 320.83 45.6161 320.062 46.576C319.295 47.536 318.255 48.0777 317.17 48.0833H317.101C317.15 47.516 317.173 46.9456 317.17 46.375V39.5417H321.268V42.9583Z" fill="#E4E4E9"/>
<defs>
<linearGradient id="paint0_linear_49_1339" x1="20.1163" y1="18.2791" x2="87.5581" y2="85.7209" gradientUnits="userSpaceOnUse">
<stop stop-color="#5300DC"/>
<stop offset="1" stop-color="#11005B"/>
</linearGradient>
<linearGradient id="paint1_linear_49_1339" x1="103.558" y1="18.2791" x2="171" y2="85.7209" gradientUnits="userSpaceOnUse">
<stop stop-color="#5300DC"/>
<stop offset="1" stop-color="#11005B"/>
</linearGradient>
<linearGradient id="paint2_linear_49_1339" x1="187" y1="18.2791" x2="254.442" y2="85.7209" gradientUnits="userSpaceOnUse">
<stop stop-color="#5300DC"/>
<stop offset="1" stop-color="#11005B"/>
</linearGradient>
<linearGradient id="paint3_linear_49_1339" x1="270.442" y1="18.2791" x2="337.884" y2="85.7209" gradientUnits="userSpaceOnUse">
<stop stop-color="#5300DC"/>
<stop offset="1" stop-color="#11005B"/>
</linearGradient>
</defs>
</svg>
