<svg width="39" height="31" viewBox="0 0 39 31" fill="none" xmlns="http://www.w3.org/2000/svg">
<path d="M39 3.64098C37.5542 4.26882 36.0206 4.68093 34.4503 4.86361C36.086 3.90266 37.3419 2.38095 37.9332 0.56785C36.3784 1.47231 34.6772 2.10956 32.9032 2.45206C31.4582 0.943066 29.3996 0 27.1212 0C22.7464 0 19.1996 3.47659 19.1996 7.76451C19.1996 8.37317 19.2697 8.96571 19.4047 9.53415C12.8213 9.21023 6.98453 6.11906 3.0775 1.42133C2.39579 2.56811 2.00516 3.90207 2.00516 5.32487C2.00516 8.0188 3.40373 10.3953 5.5291 11.7878C4.27117 11.7492 3.04092 11.4162 1.94106 10.8165C1.94061 10.849 1.94061 10.8816 1.94061 10.9142C1.94061 14.6763 4.67108 17.8146 8.29471 18.5279C7.12824 18.8389 5.90469 18.8844 4.71753 18.661C5.72547 21.7458 8.65096 23.9906 12.1171 24.0534C9.40612 26.1359 5.99046 27.3773 2.27935 27.3773C1.63987 27.3773 1.00943 27.3405 0.389709 27.2688C3.89525 29.4719 8.05898 30.7574 12.5323 30.7574C27.1028 30.7574 35.0702 18.9256 35.0702 8.665C35.0702 8.32823 35.0627 7.99337 35.0473 7.66044C36.5981 6.56152 37.9366 5.20041 39 3.64098Z" fill="#55ACEE"/>
</svg>
