<svg width="418" height="79" viewBox="0 0 418 79" fill="none" xmlns="http://www.w3.org/2000/svg">
<rect width="417.988" height="73.5566" rx="36.7783" fill="#11005B"/>
<rect x="19.8486" y="36.1945" width="198.486" height="16.3459" rx="8.17295" fill="#110E31"/>
<rect x="20.4187" y="36.466" width="102.094" height="16.5903" rx="8.29514" fill="url(#paint0_linear_45_2)"/>
<circle cx="32.5425" cy="44.7612" r="15.9522" fill="url(#paint1_linear_45_2)"/>
<path d="M33.0538 33.7593C34.8064 33.7593 36.3548 34.0315 37.699 34.576C39.0603 35.1035 40.1493 35.8182 40.9661 36.72C41.7998 37.6218 42.2933 38.6343 42.4464 39.7573H36.4994C36.2782 39.3489 35.9039 39.0171 35.3764 38.7619C34.8489 38.4896 34.1343 38.3535 33.2324 38.3535C32.1604 38.3535 31.2586 38.5492 30.5269 38.9405C29.8123 39.3319 29.2678 39.9104 28.8934 40.6761C28.5361 41.4248 28.3574 42.3692 28.3574 43.5093C28.3574 44.8024 28.5531 45.8659 28.9445 46.6997C29.3358 47.5335 29.8974 48.1545 30.629 48.5629C31.3607 48.9713 32.237 49.1755 33.258 49.1755C33.9045 49.1755 34.4491 49.0904 34.8915 48.9202C35.3339 48.7501 35.6657 48.5204 35.8869 48.2311C36.1251 47.9418 36.2442 47.627 36.2442 47.2867C36.2442 46.8784 36.1251 46.538 35.8869 46.2658C35.6657 45.9765 35.3339 45.7638 34.8915 45.6277C34.4661 45.4916 33.9386 45.4235 33.309 45.4235C32.4752 45.4235 31.65 45.5852 30.8332 45.9085C30.0335 46.2147 29.2337 46.7592 28.434 47.542L26.3921 46.2147C26.9026 45.1428 27.5492 44.2069 28.3319 43.4072C29.1317 42.5904 30.0845 41.9523 31.1906 41.4929C32.3136 41.0335 33.5983 40.8038 35.0446 40.8038C36.6781 40.8038 38.0734 41.076 39.2305 41.6205C40.3875 42.148 41.2723 42.8882 41.8849 43.8411C42.5145 44.7769 42.8293 45.8489 42.8293 47.057C42.8293 48.3502 42.4549 49.5073 41.7062 50.5282C40.9746 51.5492 39.8941 52.3574 38.4648 52.953C37.0354 53.5315 35.2573 53.8208 33.1303 53.8208C30.6801 53.8208 28.6552 53.3954 27.0557 52.5446C25.4563 51.6768 24.2652 50.4942 23.4825 48.9968C22.6997 47.4824 22.3084 45.7553 22.3084 43.8155C22.3084 41.8757 22.6997 40.1487 23.4825 38.6343C24.2822 37.1199 25.4818 35.9288 27.0813 35.061C28.6807 34.1932 30.6716 33.7593 33.0538 33.7593Z" fill="#E4E4E9"/>
<path d="M70.1538 18.7259H84.1407V24.2135H70.1538V18.7259ZM84.6512 11.2475V16.7351H70.5112L73.5229 13.7999V30.3902H66.9379V11.2475H84.6512ZM91.6705 19.4406H98.1025C98.7491 19.4406 99.251 19.2874 99.6084 18.9812C99.9657 18.6749 100.144 18.2325 100.144 17.6539C100.144 17.0754 99.9657 16.633 99.6084 16.3267C99.251 16.0204 98.7491 15.8673 98.1025 15.8673H90.7517L93.7124 12.9066V30.3902H87.1274V11.2475H99.1234C100.655 11.2475 101.991 11.5198 103.131 12.0643C104.288 12.5918 105.181 13.332 105.811 14.2848C106.457 15.2377 106.78 16.3607 106.78 17.6539C106.78 18.9131 106.457 20.0276 105.811 20.9975C105.181 21.9504 104.288 22.6906 103.131 23.2181C101.991 23.7455 100.655 24.0093 99.1234 24.0093H91.6705V19.4406ZM93.9166 21.4314H101.191L107.546 30.3902H100.017L93.9166 21.4314ZM126.561 18.5473V23.0904H112.14V18.5473H126.561ZM116.657 20.8189L115.483 27.9399L112.982 25.1834H127.505V30.3902H108.975L110.379 20.8189L108.975 11.2475H127.377V16.4543H112.982L115.483 13.6978L116.657 20.8189ZM140.357 11.2475C142.688 11.2475 144.721 11.6474 146.457 12.4471C148.209 13.2299 149.571 14.3359 150.541 15.7652C151.51 17.1945 151.995 18.8791 151.995 20.8189C151.995 22.7416 151.51 24.4262 150.541 25.8725C149.571 27.3018 148.209 28.4163 146.457 29.2161C144.721 29.9988 142.688 30.3902 140.357 30.3902H130.198V11.2475H140.357ZM136.732 27.455L133.772 24.5198H140.867C141.803 24.5198 142.603 24.3751 143.266 24.0859C143.947 23.7796 144.466 23.3542 144.823 22.8097C145.181 22.2482 145.359 21.5846 145.359 20.8189C145.359 20.0361 145.181 19.3725 144.823 18.828C144.466 18.2835 143.947 17.8666 143.266 17.5774C142.603 17.2711 141.803 17.1179 140.867 17.1179H133.772L136.732 14.1827V27.455Z" fill="#E4E4E9"/>
<circle cx="250.609" cy="36.9451" r="28.7721" fill="url(#paint2_linear_45_2)"/>
<path d="M251.249 52.9296L249.024 50.9059C241.121 43.7462 235.904 39.0088 235.904 33.229C235.904 28.4916 239.617 24.7968 244.344 24.7968C247.014 24.7968 249.576 26.0386 251.249 27.9857C252.921 26.0386 255.484 24.7968 258.154 24.7968C262.88 24.7968 266.594 28.4916 266.594 33.229C266.594 39.0088 261.377 43.7462 253.474 50.9059L251.249 52.9296Z" fill="#E4E4E9"/>
<circle cx="315.826" cy="36.9451" r="28.7721" fill="url(#paint3_linear_45_2)"/>
<path d="M315.571 50.6279L324.271 33.2086H318.256V21.9836L309.305 39.4029H315.571V50.6279ZM316.466 18.4031C321.389 18.4031 325.596 20.1933 329.087 23.6844C332.578 27.1754 334.368 31.3825 334.368 36.3057C334.368 41.229 332.578 45.4361 329.087 48.9271C325.596 52.4181 321.389 54.2084 316.466 54.2084C311.542 54.2084 307.335 52.4181 303.844 48.9271C300.353 45.4361 298.563 41.229 298.563 36.3057C298.563 31.3825 300.353 27.1754 303.844 23.6844C307.335 20.1933 311.542 18.4031 316.466 18.4031Z" fill="#E4E4E9"/>
<circle cx="381.043" cy="36.9451" r="28.7721" fill="url(#paint4_linear_45_2)"/>
<path d="M374.647 46.5358C372.889 46.5358 371.467 47.9744 371.467 49.7327C371.467 51.491 372.889 52.9296 374.647 52.9296C376.405 52.9296 377.843 51.491 377.843 49.7327C377.843 47.9744 376.405 46.5358 374.647 46.5358ZM365.059 22.559C365.059 23.4381 365.778 24.1574 366.657 24.1574H368.255L374.008 36.2897L371.85 40.1899C370.684 42.3318 372.218 44.9373 374.647 44.9373H392.225C393.104 44.9373 393.823 44.218 393.823 43.3389C393.823 42.4597 393.104 41.7404 392.225 41.7404H374.647L376.405 38.5435H388.31C389.508 38.5435 390.563 37.8881 391.106 36.8971L396.827 26.5232C396.962 26.2809 397.031 26.0076 397.028 25.7304C397.024 25.4532 396.949 25.1817 396.808 24.9427C396.668 24.7037 396.467 24.5056 396.227 24.3678C395.986 24.2301 395.714 24.1576 395.437 24.1574H371.786L370.716 21.8717C370.587 21.5988 370.384 21.3682 370.129 21.2069C369.874 21.0455 369.579 20.9601 369.277 20.9605H366.657C365.778 20.9605 365.059 21.6798 365.059 22.559ZM390.627 46.5358C388.869 46.5358 387.447 47.9744 387.447 49.7327C387.447 51.491 388.869 52.9296 390.627 52.9296C392.385 52.9296 393.823 51.491 393.823 49.7327C393.823 47.9744 392.385 46.5358 390.627 46.5358Z" fill="#E4E4E9"/>
<defs>
<linearGradient id="paint0_linear_45_2" x1="20.4187" y1="36.466" x2="25.6719" y2="68.793" gradientUnits="userSpaceOnUse">
<stop stop-color="#5300DC"/>
<stop offset="1" stop-color="#F200F3"/>
</linearGradient>
<linearGradient id="paint1_linear_45_2" x1="16.5903" y1="28.809" x2="48.4947" y2="60.7133" gradientUnits="userSpaceOnUse">
<stop stop-color="#5300DC"/>
<stop offset="1" stop-color="#11005B"/>
</linearGradient>
<linearGradient id="paint2_linear_45_2" x1="221.837" y1="8.17298" x2="279.382" y2="65.7173" gradientUnits="userSpaceOnUse">
<stop stop-color="#5300DC"/>
<stop offset="1" stop-color="#FF007D"/>
</linearGradient>
<linearGradient id="paint3_linear_45_2" x1="287.054" y1="8.17298" x2="344.598" y2="65.7173" gradientUnits="userSpaceOnUse">
<stop stop-color="#5300DC"/>
<stop offset="1" stop-color="#FF007D"/>
</linearGradient>
<linearGradient id="paint4_linear_45_2" x1="352.271" y1="8.17298" x2="409.815" y2="65.7173" gradientUnits="userSpaceOnUse">
<stop stop-color="#5300DC"/>
<stop offset="1" stop-color="#FF007D"/>
</linearGradient>
</defs>
</svg>
